<svg width="416" height="416" xmlns="http://www.w3.org/2000/svg" xmlns:xlink="http://www.w3.org/1999/xlink" xml:space="preserve" overflow="hidden"><g transform="translate(-573 -224)"><g><g><g><path d="M791.778 234.027C700.458 231.195 624.133 302.928 621.301 394.248 621.248 395.957 621.221 397.668 621.221 399.378 621.221 514.891 737.374 599.436 775.02 623.809 782.151 628.424 791.307 628.508 798.522 624.024 834.966 601.487 943.305 525.424 951.576 413.026 958.458 319.476 885.537 236.861 791.778 234.027ZM665.335 413.997 665.335 382.835 702.011 382.835C733.513 382.872 759.042 408.4 759.078 439.903L759.078 471.064 722.403 471.064C690.9 471.027 665.372 445.499 665.335 413.997ZM803.192 559.292 770.107 559.292C764.016 559.292 759.078 554.355 759.078 548.264 759.078 542.173 764.016 537.235 770.107 537.235L803.192 537.235C809.283 537.235 814.221 542.173 814.221 548.264 814.221 554.355 809.283 559.292 803.192 559.292ZM907.964 413.997C907.927 445.499 882.399 471.027 850.896 471.064L814.221 471.064 814.221 439.903C814.257 408.4 839.786 382.872 871.288 382.835L907.964 382.835Z" fill="#000000" fill-rule="nonzero" fill-opacity="1"/></g></g></g></g></svg>